<svg width="14" height="13" viewBox="0 0 14 13" fill="none" xmlns="http://www.w3.org/2000/svg">
    <g clip-path="url(#clip0)">
        <path
            d="M8.93138 4.70992C8.75029 4.70992 8.60352 4.84621 8.60352 5.01437V10.7685C8.60352 10.9365 8.75029 11.0729 8.93138 11.0729C9.11248 11.0729 9.25925 10.9365 9.25925 10.7685V5.01437C9.25925 4.84621 9.11248 4.70992 8.93138 4.70992Z"
            fill="#fff"/>
        <path
            d="M5.06224 4.70992C4.88115 4.70992 4.73438 4.84621 4.73438 5.01437V10.7685C4.73438 10.9365 4.88115 11.0729 5.06224 11.0729C5.24334 11.0729 5.39011 10.9365 5.39011 10.7685V5.01437C5.39011 4.84621 5.24334 4.70992 5.06224 4.70992Z"
            fill="#fff"/>
        <path
            d="M2.2437 3.87019V11.3712C2.2437 11.8145 2.41877 12.2309 2.72461 12.5296C3.02904 12.8292 3.45271 12.9992 3.8961 13H10.0995C10.543 12.9992 10.9666 12.8292 11.271 12.5296C11.5768 12.2309 11.7519 11.8145 11.7519 11.3712V3.87019C12.3598 3.72034 12.7538 3.17495 12.6725 2.59566C12.591 2.0165 12.0596 1.58325 11.4305 1.58314H9.75187V1.20257C9.75379 0.882546 9.61752 0.575243 9.37354 0.349166C9.12956 0.123208 8.79811 -0.0026145 8.45346 1.85509e-06H5.5421C5.19745 -0.0026145 4.866 0.123208 4.62202 0.349166C4.37804 0.575243 4.24177 0.882546 4.24369 1.20257V1.58314H2.56503C1.93594 1.58325 1.40456 2.0165 1.32311 2.59566C1.24178 3.17495 1.63573 3.72034 2.2437 3.87019ZM10.0995 12.3911H3.8961C3.33552 12.3911 2.89943 11.9439 2.89943 11.3712V3.89695H11.0961V11.3712C11.0961 11.9439 10.66 12.3911 10.0995 12.3911ZM4.89943 1.20257C4.89725 1.04405 4.96436 0.891466 5.08552 0.779557C5.20655 0.667648 5.37125 0.606164 5.5421 0.608899H8.45346C8.62431 0.606164 8.78902 0.667648 8.91005 0.779557C9.0312 0.891347 9.09831 1.04405 9.09614 1.20257V1.58314H4.89943V1.20257ZM2.56503 2.19203H11.4305C11.7565 2.19203 12.0207 2.43738 12.0207 2.74004C12.0207 3.04271 11.7565 3.28805 11.4305 3.28805H2.56503C2.23909 3.28805 1.97487 3.04271 1.97487 2.74004C1.97487 2.43738 2.23909 2.19203 2.56503 2.19203Z"
            fill="#fff"/>
        <path
            d="M6.99779 4.70992C6.81669 4.70992 6.66992 4.84621 6.66992 5.01437V10.7685C6.66992 10.9365 6.81669 11.0729 6.99779 11.0729C7.17889 11.0729 7.32566 10.9365 7.32566 10.7685V5.01437C7.32566 4.84621 7.17889 4.70992 6.99779 4.70992Z"
            fill="#fff"/>
    </g>
    <defs>
        <clipPath id="clip0">
            <rect width="14" height="13" fill="#fff"/>
        </clipPath>
    </defs>
</svg>
