<svg width="1502" height="314" viewBox="0 0 1502 314" fill="none" xmlns="http://www.w3.org/2000/svg">
    <path
        d="M1238.7 138.942L1188.9 131.335L1166.58 83.7879C1164.91 80.2374 1159.08 80.2374 1157.42 83.7879L1135.1 131.335L1085.3 138.942C1081.21 139.57 1079.58 144.545 1082.44 147.481L1118.62 184.565L1110.07 236.993C1109.39 241.157 1113.84 244.283 1117.52 242.237L1162 217.654L1206.48 242.244C1210.13 244.269 1214.62 241.205 1213.93 236.999L1205.38 184.572L1241.56 147.488C1244.42 144.545 1242.78 139.57 1238.7 138.942Z"
        fill="#F8913E"/>
    <path
        d="M15.2388 41.3438H185.817L188.067 104.766H182.301C182.114 91.3595 178.926 79.6406 172.739 69.6094C170.676 66.2344 168.426 63.375 165.989 61.0312C156.145 51.75 141.426 47.1095 121.833 47.1095H114.379V237.234H140.254V243H60.8013V237.234H86.6763V47.1095H79.2231C59.6294 47.1095 44.9575 51.75 35.2075 61.0312C27.52 68.1563 22.4575 78.6562 20.02 92.5312C19.27 96.6562 18.8481 100.734 18.7544 104.766H12.9888L15.2388 41.3438ZM313.161 241.875V247.078C307.068 247.266 301.068 246.422 295.161 244.547L288.833 242.016L285.599 240.188C279.13 235.875 274.208 230.203 270.833 223.172C268.021 228.516 263.614 233.391 257.614 237.797C248.989 243.891 239.474 246.984 229.068 247.078C218.568 247.078 210.224 244.453 204.036 239.203C197.099 233.672 193.349 225.703 192.786 215.297C192.786 214.547 192.786 213.797 192.786 213.047C192.786 200.297 198.458 190.219 209.802 182.812C218.052 177.469 229.864 173.906 245.239 172.125L267.739 169.594V139.359C267.739 132.797 265.724 127.594 261.693 123.75C256.443 118.781 249.505 116.297 240.88 116.297C233.286 116.297 226.771 118.219 221.333 122.062C217.864 124.312 216.036 126.609 215.849 128.953C215.849 130.078 216.786 131.25 218.661 132.469C218.849 132.562 218.989 132.656 219.083 132.75L223.302 135.141C224.146 135.797 224.943 136.594 225.693 137.531C227.193 139.781 227.943 142.125 227.943 144.562C227.943 147.75 226.911 150.609 224.849 153.141C222.411 155.859 219.411 157.219 215.849 157.219C211.818 157.219 208.489 155.672 205.864 152.578C203.333 149.766 202.068 146.203 202.068 141.891C202.068 135.047 204.88 128.719 210.505 122.906C211.724 121.688 212.943 120.609 214.161 119.672C221.661 113.953 231.083 111.094 242.427 111.094C254.989 111.094 265.583 114 274.208 119.812C276.458 121.406 278.427 123.094 280.114 124.875C286.864 132.188 290.239 141.984 290.239 154.266V215.578C290.239 229.453 295.677 237.891 306.552 240.891C308.614 241.453 310.818 241.781 313.161 241.875ZM267.739 206.438V175.359L251.005 177.328C242.193 178.453 236.052 179.812 232.583 181.406C230.146 182.625 228.036 184.125 226.255 185.906C221.099 190.969 218.427 198.797 218.239 209.391C218.239 210.234 218.239 211.547 218.239 213.328C218.239 222.797 219.505 229.453 222.036 233.297C222.224 233.672 222.458 234.047 222.739 234.422C226.021 238.172 230.474 240.094 236.099 240.188C243.505 240.188 250.583 236.906 257.333 230.344C263.333 224.812 266.708 218.531 267.458 211.5C267.646 209.906 267.739 208.219 267.739 206.438ZM320.834 115.172H344.459V81.1407L366.818 64.4062V115.172H397.334V120.375H366.818V215.016C366.818 223.641 367.896 229.875 370.053 233.719C372.49 237.938 376.146 240.094 381.021 240.188C386.553 240.188 391.053 236.812 394.521 230.062C398.74 222.094 401.037 210.188 401.412 194.344H407.178C406.709 211.312 404.412 223.781 400.287 231.75C394.943 241.969 386.787 247.078 375.818 247.078C363.724 247.078 355.053 241.969 349.803 231.75C346.24 224.719 344.459 215.625 344.459 204.469V120.375H320.834V115.172ZM415.413 115.172H439.038V81.1407L461.397 64.4062V115.172H491.913V120.375H461.397V215.016C461.397 223.641 462.475 229.875 464.631 233.719C467.069 237.938 470.725 240.094 475.6 240.188C481.131 240.188 485.631 236.812 489.1 230.062C493.319 222.094 495.616 210.188 495.991 194.344H501.756C501.288 211.312 498.991 223.781 494.866 231.75C489.522 241.969 481.366 247.078 470.397 247.078C458.303 247.078 449.631 241.969 444.381 231.75C440.819 224.719 439.038 215.625 439.038 204.469V120.375H415.413V115.172ZM573.554 111.094C586.21 111.094 597.929 115.219 608.71 123.469C613.491 127.125 617.616 131.438 621.085 136.406C628.585 146.625 632.898 158.859 634.023 173.109C634.21 175.078 634.304 177.047 634.304 179.016C634.304 192.984 630.929 205.641 624.179 216.984C623.148 218.578 622.116 220.125 621.085 221.625C612.835 233.25 601.96 241.031 588.46 244.969C583.398 246.375 578.429 247.078 573.554 247.078C561.179 247.078 549.694 243.047 539.101 234.984C534.038 231.234 529.679 226.781 526.023 221.625C518.616 211.5 514.304 199.406 513.085 185.344C512.898 183.188 512.804 181.078 512.804 179.016C512.804 165.328 516.179 152.719 522.929 141.188C523.866 139.5 524.898 137.906 526.023 136.406C534.179 124.875 545.054 117.188 558.648 113.344C563.616 111.844 568.585 111.094 573.554 111.094ZM573.554 241.875C586.21 241.875 595.491 236.203 601.398 224.859C602.335 223.266 603.132 221.531 603.788 219.656C607.257 210.844 608.991 197.297 608.991 179.016C608.991 160.734 607.257 147.234 603.788 138.516C598.726 125.016 589.773 117.656 576.929 116.438C575.804 116.344 574.679 116.297 573.554 116.297C560.898 116.297 551.616 121.969 545.71 133.312C544.773 134.906 543.976 136.641 543.319 138.516C539.851 147.516 538.116 161.016 538.116 179.016C538.116 196.922 539.851 210.469 543.319 219.656C548.382 233.156 557.335 240.516 570.179 241.734C571.304 241.828 572.429 241.875 573.554 241.875ZM714.539 111.094C727.195 111.094 738.914 115.219 749.695 123.469C754.476 127.125 758.601 131.438 762.07 136.406C769.57 146.625 773.883 158.859 775.008 173.109C775.195 175.078 775.289 177.047 775.289 179.016C775.289 192.984 771.914 205.641 765.164 216.984C764.133 218.578 763.101 220.125 762.07 221.625C753.82 233.25 742.945 241.031 729.445 244.969C724.383 246.375 719.414 247.078 714.539 247.078C702.164 247.078 690.679 243.047 680.086 234.984C675.023 231.234 670.664 226.781 667.008 221.625C659.601 211.5 655.289 199.406 654.07 185.344C653.883 183.188 653.789 181.078 653.789 179.016C653.789 165.328 657.164 152.719 663.914 141.188C664.851 139.5 665.883 137.906 667.008 136.406C675.164 124.875 686.039 117.188 699.633 113.344C704.601 111.844 709.57 111.094 714.539 111.094ZM714.539 241.875C727.195 241.875 736.476 236.203 742.383 224.859C743.32 223.266 744.117 221.531 744.773 219.656C748.242 210.844 749.976 197.297 749.976 179.016C749.976 160.734 748.242 147.234 744.773 138.516C739.711 125.016 730.758 117.656 717.914 116.438C716.789 116.344 715.664 116.297 714.539 116.297C701.883 116.297 692.601 121.969 686.695 133.312C685.758 134.906 684.961 136.641 684.304 138.516C680.836 147.516 679.101 161.016 679.101 179.016C679.101 196.922 680.836 210.469 684.304 219.656C689.367 233.156 698.32 240.516 711.164 241.734C712.289 241.828 713.414 241.875 714.539 241.875ZM924.992 37.4062H930.758V103.078H924.992C924.149 89.1094 919.696 76.4531 911.633 65.1094C911.071 64.2656 910.461 63.4688 909.805 62.7188C900.149 50.8125 887.586 44.2031 872.117 42.8906C870.336 42.7031 868.508 42.6095 866.633 42.6095C855.946 42.6095 846.524 45.9375 838.367 52.5938C828.899 60.5625 824.164 69.9844 824.164 80.8594C824.164 92.0156 828.617 101.344 837.524 108.844C838.461 109.688 839.399 110.438 840.336 111.094C845.024 114.281 852.899 117.375 863.961 120.375C877.18 124.031 885.149 126.234 887.867 126.984C906.43 132.234 920.071 139.266 928.789 148.078L933.149 153.141C940.367 162.609 943.977 174.328 943.977 188.297C943.977 204.609 939.055 218.109 929.211 228.797C927.899 230.297 926.492 231.656 924.992 232.875C914.024 242.344 899.258 247.078 880.696 247.078C868.227 247.078 856.321 244.641 844.977 239.766L829.649 233.016L824.586 231.609C823.836 231.516 823.133 231.469 822.477 231.469C817.789 231.469 814.367 233.344 812.211 237.094C811.18 238.875 810.758 240.844 810.946 243H805.18V173.25H810.946C813.852 195.75 822.196 213 835.977 225C836.539 225.562 837.149 226.078 837.805 226.547C848.961 235.641 861.899 240.703 876.617 241.734C878.117 241.828 879.664 241.875 881.258 241.875C895.508 241.875 906.805 238.219 915.149 230.906C915.711 230.438 916.227 229.969 916.696 229.5C923.446 222.75 926.821 213.891 926.821 202.922C926.821 191.484 923.071 181.781 915.571 173.812C908.727 166.594 897.617 160.875 882.242 156.656C889.93 158.812 885.102 157.547 867.758 152.859C835.321 144.141 816.524 128.906 811.367 107.156C810.336 102.938 809.821 98.4844 809.821 93.7969C809.821 80.8594 814.133 68.9531 822.758 58.0781C824.164 56.2969 825.617 54.6563 827.117 53.1562C838.086 42.6562 852.196 37.4062 869.446 37.4062C880.039 37.4062 889.93 39.7032 899.117 44.297L907.977 48.6562C910.414 49.5939 912.664 50.0625 914.727 50.0625C920.071 50.0625 923.352 47.3439 924.571 41.9062C924.946 40.5001 925.086 39 924.992 37.4062ZM962.478 115.172H986.103V81.1407L1008.46 64.4062V115.172H1038.98V120.375H1008.46V215.016C1008.46 223.641 1009.54 229.875 1011.7 233.719C1014.13 237.938 1017.79 240.094 1022.67 240.188C1028.2 240.188 1032.7 236.812 1036.17 230.062C1040.38 222.094 1042.68 210.188 1043.06 194.344H1048.82C1048.35 211.312 1046.06 223.781 1041.93 231.75C1036.59 241.969 1028.43 247.078 1017.46 247.078C1005.37 247.078 996.696 241.969 991.446 231.75C987.884 224.719 986.103 215.625 986.103 204.469V120.375H962.478V115.172ZM1338.32 243H1273.21V237.797H1294.59V120.375H1273.21V115.172H1316.95V136.406H1317.65C1320.28 129.938 1324.07 124.5 1329.04 120.094C1335.79 114.094 1343.48 111.094 1352.1 111.094C1359.89 111.094 1365.93 113.578 1370.24 118.547C1373.53 122.578 1375.17 127.5 1375.17 133.312C1375.17 138.75 1374.04 142.875 1371.79 145.688C1368.89 149.156 1365.14 150.891 1360.54 150.891C1356.51 150.891 1353.32 149.719 1350.98 147.375C1348.64 144.656 1347.46 141.469 1347.46 137.812C1347.46 133.312 1349.71 129.609 1354.21 126.703C1356.74 124.734 1358.2 123.375 1358.57 122.625C1358.85 122.156 1358.99 121.688 1358.99 121.219C1358.99 119.062 1357.59 117.562 1354.78 116.719L1351.54 116.297C1344.23 116.297 1337.62 119.25 1331.71 125.156C1326.46 130.688 1322.71 136.922 1320.46 143.859C1318.12 150.609 1316.95 159.938 1316.95 171.844V237.797H1338.32V243ZM1389.73 199.547H1394.93C1398.12 209.203 1401.68 216.656 1405.62 221.906C1411.81 229.969 1420.06 235.781 1430.37 239.344C1435.15 241.031 1439.79 241.875 1444.29 241.875C1451.42 241.875 1457.98 239.906 1463.98 235.969C1464.73 235.406 1465.43 234.891 1466.09 234.422C1470.78 230.484 1473.78 225.328 1475.09 218.953C1475.46 217.359 1475.65 215.766 1475.65 214.172C1475.65 204.891 1470.31 198 1459.62 193.5L1451.04 190.406C1449.92 190.125 1448.7 189.797 1447.39 189.422L1421.37 182.391C1416.87 180.984 1413.17 179.391 1410.26 177.609C1399.2 170.016 1393.53 160.125 1393.25 147.938C1393.25 137.344 1397.18 128.438 1405.06 121.219C1412.75 114.469 1421.98 111.094 1432.76 111.094C1439.42 111.094 1446.68 113.016 1454.56 116.859C1460.09 119.297 1463.84 120.562 1465.81 120.656C1469.46 120.656 1471.95 118.828 1473.26 115.172H1478.46V154.547H1473.26C1471.48 144.609 1467.64 136.359 1461.73 129.797C1454.42 121.547 1445.18 117.094 1434.03 116.438C1433.18 116.344 1432.34 116.297 1431.5 116.297C1424.56 116.297 1418.84 118.031 1414.34 121.5C1409.46 124.969 1407.03 129.938 1407.03 136.406C1407.03 145.688 1412.23 152.344 1422.64 156.375C1425.54 157.5 1429.48 158.625 1434.45 159.75C1447.2 162.844 1456.06 165.469 1461.03 167.625C1466.84 170.156 1471.62 173.297 1475.37 177.047C1482.5 184.172 1486.06 193.312 1486.06 204.469C1486.06 218.625 1481.14 229.641 1471.29 237.516C1463.42 243.891 1454.18 247.078 1443.59 247.078C1436.75 247.078 1429.29 245.344 1421.23 241.875C1414.1 238.688 1409.93 236.906 1408.71 236.531C1407.5 236.25 1406.37 236.109 1405.34 236.109C1401.03 236.109 1397.84 237.891 1395.78 241.453C1395.4 241.922 1395.12 242.438 1394.93 243H1389.73V199.547Z"
        fill="#030303"/>
</svg>
